<?xml version="1.0" standalone="no"?>
<!DOCTYPE svg PUBLIC "-//W3C//DTD SVG 20010904//EN"
 "http://www.w3.org/TR/2001/REC-SVG-20010904/DTD/svg10.dtd">
<svg version="1.0" xmlns="http://www.w3.org/2000/svg"
 width="259.000000pt" height="195.000000pt" viewBox="0 0 259.000000 195.000000"
 preserveAspectRatio="xMidYMid meet">

<g transform="translate(0.000000,195.000000) scale(0.100000,-0.100000)"
fill="#000000" stroke="none">
<path d="M1270 1890 c-19 -6 -69 -7 -110 -4 -60 5 -87 2 -135 -14 -56 -19 -64
-19 -115 -6 -67 18 -191 21 -246 5 -111 -30 -167 -113 -172 -255 -5 -99 5
-163 49 -315 58 -204 118 -317 185 -348 33 -16 37 -16 68 1 31 17 36 17 64 2
34 -18 144 -26 178 -13 20 7 21 4 27 -102 6 -127 22 -170 74 -202 65 -40 190
-23 251 34 43 40 53 73 77 258 l6 46 69 6 c86 7 134 29 166 76 51 75 27 106
-76 96 -38 -4 -70 -4 -70 0 0 3 11 25 24 48 103 177 166 460 122 546 -21 40
-82 90 -146 120 -46 21 -72 26 -155 28 -55 1 -116 -2 -135 -7z m246 -46 c57
-15 125 -61 151 -101 14 -22 18 -47 17 -123 0 -82 -6 -110 -38 -205 -20 -60
-57 -147 -82 -192 -24 -46 -44 -86 -44 -89 0 -4 36 -4 79 -1 63 5 82 3 91 -8
33 -40 -70 -105 -179 -114 l-65 -6 -14 -110 c-17 -141 -40 -191 -102 -223 -29
-14 -62 -22 -96 -22 -103 0 -144 72 -144 251 l0 97 -37 -20 c-52 -27 -144 -21
-176 10 -29 29 -15 52 40 68 50 15 83 32 83 43 0 5 -14 14 -31 20 -30 10 -33
9 -73 -37 -79 -92 -93 -102 -128 -102 -84 0 -171 172 -229 452 -48 233 8 377
158 408 64 14 148 9 232 -14 49 -13 57 -12 98 6 34 15 64 19 136 18 50 -1 119
3 152 7 71 10 131 7 201 -13z"/>
<path d="M1327 1823 l-29 -4 44 -28 c55 -35 116 -104 148 -167 24 -47 24 -55
22 -219 -2 -93 -5 -179 -8 -190 -11 -44 48 66 81 150 67 175 82 294 43 350
-25 38 -73 72 -125 90 -45 15 -136 25 -176 18z"/>
<path d="M686 1795 c-91 -32 -133 -120 -123 -255 13 -150 93 -409 152 -485 39
-52 61 -47 129 31 54 60 57 66 42 82 -38 43 -45 84 -41 233 3 79 8 164 11 187
6 50 35 121 65 163 23 32 23 32 -51 48 -62 14 -138 13 -184 -4z"/>
<path d="M1040 1794 c-69 -30 -112 -86 -136 -179 -22 -81 -20 -87 21 -69 89
37 156 7 174 -77 20 -90 14 -163 -19 -246 -16 -41 -30 -76 -30 -79 0 -2 9 -4
19 -4 11 0 29 -12 40 -26 19 -24 21 -40 21 -168 0 -152 8 -200 40 -234 37 -39
150 -23 187 27 15 20 30 103 48 256 11 96 17 123 33 135 19 15 18 17 -21 85
-51 91 -97 205 -97 244 0 66 48 111 120 111 l31 0 -27 51 c-38 69 -121 143
-189 168 -66 25 -164 27 -215 5z"/>
<path d="M1393 1520 c-30 -12 -38 -52 -23 -103 15 -53 82 -187 92 -187 4 0 8
57 7 128 0 70 1 136 3 147 2 16 -3 20 -27 22 -16 1 -40 -2 -52 -7z m54 -23
c-2 -6 -11 -15 -20 -21 -13 -8 -21 -7 -34 6 -16 16 -15 18 8 26 27 11 52 5 46
-11z"/>
<path d="M929 1504 l-36 -15 -6 -111 c-6 -95 -4 -117 11 -147 16 -35 72 -81
97 -81 6 0 25 33 41 72 24 61 29 87 29 160 0 89 -7 110 -27 90 -16 -16 -43
-15 -57 2 -19 23 13 42 46 27 23 -11 25 -10 13 3 -16 20 -64 20 -111 0z"/>
<path d="M1465 1096 c-12 -8 -16 -19 -11 -31 6 -15 15 -17 67 -12 33 4 70 12
82 19 20 12 16 13 -38 18 -33 3 -65 8 -71 12 -6 4 -19 1 -29 -6z"/>
<path d="M1025 1070 c-16 -17 -50 -37 -75 -44 -44 -13 -44 -14 -17 -21 46 -12
98 2 131 34 25 25 27 32 16 45 -17 22 -22 20 -55 -14z"/>
<path d="M2014 550 c-104 -15 -165 -104 -151 -222 16 -128 132 -196 271 -157
34 9 41 8 62 -12 15 -14 29 -19 41 -15 16 6 14 11 -16 35 -23 19 -30 30 -22
35 26 17 51 86 51 143 0 137 -93 213 -236 193z m133 -46 c67 -50 90 -137 59
-219 -41 -106 -171 -136 -257 -58 -88 79 -68 243 35 289 42 20 130 13 163 -12z"/>
<path d="M1580 522 c-33 -33 -39 -72 -19 -116 13 -27 34 -36 144 -62 39 -8 78
-23 88 -31 19 -18 23 -64 7 -93 -21 -40 -133 -48 -187 -14 -12 7 -27 29 -34
49 -14 38 -39 48 -39 15 0 -61 47 -100 129 -107 80 -7 137 10 161 50 49 80 14
127 -120 161 -124 32 -157 70 -112 126 14 18 32 24 74 28 70 6 116 -16 125
-59 4 -21 11 -29 22 -27 23 5 15 47 -15 78 -22 22 -34 25 -109 29 -83 3 -85 2
-115 -27z"/>
<path d="M2287 544 c-4 -4 -7 -90 -7 -191 l0 -183 141 0 c108 0 140 3 137 13
-3 8 -39 13 -121 15 l-117 3 -2 171 c-3 161 -9 194 -31 172z"/>
<path d="M60 345 c0 -131 2 -155 15 -155 12 0 15 14 15 65 l0 65 79 0 c87 0
123 17 135 66 9 34 -10 91 -34 104 -10 6 -62 10 -114 10 l-96 0 0 -155z m199
109 c26 -33 26 -55 2 -85 -17 -21 -28 -24 -93 -24 l-73 0 -3 54 c-5 79 -3 81
77 81 63 0 71 -2 90 -26z"/>
<path d="M820 425 c0 -28 -4 -35 -20 -35 -11 0 -20 -4 -20 -10 0 -5 9 -10 20
-10 18 0 20 -7 20 -85 0 -73 3 -86 19 -95 23 -12 51 -13 51 -2 0 4 -10 12 -22
17 -21 9 -23 18 -26 88 -3 77 -3 77 23 77 14 0 25 5 25 10 0 6 -11 10 -25 10
-22 0 -25 4 -25 35 0 19 -4 35 -10 35 -5 0 -10 -16 -10 -35z"/>
<path d="M371 387 c-33 -20 -50 -55 -51 -105 0 -84 88 -130 170 -87 55 29 64
129 15 175 -29 27 -100 36 -134 17z m122 -38 c10 -12 17 -38 17 -62 0 -53 -30
-87 -77 -87 -48 0 -70 14 -83 54 -14 44 -4 81 29 107 32 26 88 20 114 -12z"/>
<path d="M600 387 c-28 -14 -39 -59 -20 -82 6 -7 27 -16 48 -19 81 -14 93 -18
102 -36 15 -28 -13 -50 -65 -50 -41 0 -75 18 -75 41 0 5 -7 9 -15 9 -22 0 -18
-18 10 -45 19 -20 34 -25 72 -25 66 0 97 18 101 56 4 40 -13 53 -82 64 -69 11
-76 15 -76 45 0 43 76 50 116 10 30 -30 34 -31 34 -5 0 41 -96 64 -150 37z"/>
<path d="M954 391 c-12 -5 -29 -20 -38 -33 -16 -22 -22 -92 -10 -123 16 -39
111 -59 150 -30 30 23 37 18 31 -21 -9 -53 -23 -64 -78 -64 -37 0 -54 5 -66
20 -20 24 -33 26 -33 6 0 -26 42 -46 98 -46 43 0 58 5 77 25 24 23 25 30 25
145 0 73 -4 120 -10 120 -5 0 -10 -7 -10 -17 0 -15 -2 -15 -19 1 -23 21 -87
30 -117 17z m89 -20 c50 -19 60 -114 14 -146 -52 -36 -137 1 -137 59 0 72 57
112 123 87z"/>
<path d="M1200 380 c-16 -16 -20 -17 -20 -5 0 8 -4 15 -10 15 -6 0 -10 -40
-10 -100 0 -60 4 -100 10 -100 6 0 10 28 10 63 0 80 16 111 58 115 20 2 32 9
32 18 0 21 -47 17 -70 -6z"/>
<path d="M1323 380 c-59 -36 -63 -135 -6 -180 38 -30 103 -27 142 6 17 14 31
30 31 35 0 17 -22 9 -42 -16 -27 -35 -89 -35 -123 0 -47 46 -36 55 70 55 l95
0 0 26 c0 36 -16 61 -50 79 -39 20 -79 19 -117 -5z m100 -11 c21 -9 47 -46 47
-64 0 -3 -38 -5 -85 -5 -47 0 -85 2 -85 5 0 4 7 19 15 35 20 38 63 50 108 29z"/>
</g>
</svg>
